<svg width="20" height="21" viewBox="0 0 20 21" fill="none" xmlns="http://www.w3.org/2000/svg">
<path d="M16.7656 3.73438C14.9609 1.92578 12.5547 0.929688 10 0.929688C7.44531 0.929688 5.03906 1.92578 3.23438 3.73438C1.42969 5.54297 0.429688 7.94531 0.429688 10.5C0.429688 13.0547 1.42578 15.4609 3.23438 17.2656C5.04297 19.0703 7.44531 20.0703 10 20.0703C12.5547 20.0703 14.9609 19.0742 16.7656 17.2656C18.5703 15.457 19.5703 13.0547 19.5703 10.5C19.5703 7.94531 18.5742 5.53906 16.7656 3.73438ZM18.7031 10.0703H14.9922C14.957 8.59375 14.75 7.17188 14.3867 5.91016C15.0938 5.54688 15.7539 5.08984 16.3594 4.55078C17.7266 6.01172 18.5977 7.94141 18.7031 10.0703ZM10.4297 10.9297H14.1367C14.1055 12.2891 13.918 13.5898 13.5938 14.7539C12.5938 14.3516 11.5273 14.1172 10.4297 14.0664V10.9297ZM15.7422 3.95312C15.2422 4.39453 14.6953 4.76953 14.1172 5.08203C13.9688 4.66797 13.8008 4.27734 13.6133 3.91016C13.2422 3.17578 12.8203 2.57422 12.3555 2.11328C13.625 2.46875 14.7773 3.10547 15.7422 3.95312ZM10.4297 1.92188C11.3242 2.12109 12.168 2.94531 12.8477 4.28906C13.0312 4.65234 13.1953 5.03906 13.3398 5.44922C12.4219 5.82812 11.4414 6.05078 10.4297 6.10156V1.92188ZM13.5977 6.27344C13.918 7.42969 14.1016 8.72266 14.1328 10.0742H10.4297V6.96484C11.5312 6.91406 12.5977 6.67578 13.5977 6.27344ZM9.57031 10.0703H5.86328C5.89453 8.71875 6.07812 7.42578 6.39844 6.26953C7.39844 6.67578 8.46875 6.91016 9.56641 6.95703V10.0703H9.57031ZM9.57422 1.92188V6.10156C8.5625 6.05078 7.57812 5.82812 6.66406 5.44922C6.80859 5.03906 6.97266 4.65234 7.15625 4.28906C7.83594 2.94531 8.67969 2.12109 9.57422 1.92188ZM7.64844 2.11328C7.18359 2.57422 6.76172 3.17969 6.39062 3.91016C6.20703 4.27734 6.03906 4.66797 5.88672 5.08203C5.30859 4.76953 4.76562 4.39453 4.26172 3.95312C5.22656 3.10547 6.37891 2.46875 7.64844 2.11328ZM3.64453 4.55078C4.25 5.08984 4.91016 5.54297 5.61719 5.91016C5.25391 7.17578 5.04297 8.59375 5.01172 10.0703H1.30078C1.40625 7.94141 2.27734 6.01172 3.64453 4.55078ZM1.30078 10.9297H5.01172C5.04688 12.418 5.25781 13.8438 5.625 15.1133C4.92188 15.4766 4.26172 15.9258 3.66016 16.4648C2.28125 15 1.40625 13.0664 1.30078 10.9297ZM4.27734 17.0625C4.77734 16.625 5.32031 16.25 5.89453 15.9414C6.04297 16.3438 6.20703 16.7305 6.39062 17.0898C6.76172 17.8242 7.18359 18.4258 7.64844 18.8906C6.38672 18.5352 5.23828 17.9023 4.27734 17.0625ZM9.57422 19.0781C8.67969 18.8789 7.83594 18.0547 7.15625 16.7109C6.97656 16.3555 6.81641 15.9766 6.67188 15.5742C7.58594 15.1953 8.56641 14.9727 9.57422 14.9258V19.0781ZM6.41016 14.7539C6.08594 13.5898 5.89844 12.2891 5.86719 10.9297H9.57422V14.0664C8.47656 14.1133 7.41016 14.3477 6.41016 14.7539ZM10.4336 19.0781V14.9258C11.4414 14.9766 12.4219 15.1953 13.3359 15.5742C13.1914 15.9766 13.0312 16.3555 12.8516 16.7109C12.1719 18.0547 11.3281 18.8789 10.4336 19.0781ZM12.3594 18.8867C12.8242 18.4258 13.2461 17.8203 13.6172 17.0859C13.8008 16.7266 13.9648 16.3398 14.1133 15.9375C14.6875 16.2461 15.2305 16.6211 15.7305 17.0586C14.7695 17.9023 13.6211 18.5352 12.3594 18.8867ZM16.3516 16.4648C15.75 15.9297 15.0898 15.4766 14.3867 15.1133C14.7539 13.8438 14.9648 12.4141 15 10.9297H18.7109C18.6016 13.0664 17.7266 15 16.3516 16.4648Z" fill="white"/>
</svg>
